REM DIRINDEX 1\2\6,1\2\7,1\2\8,1\2\9,1\3\10,1\3\11,1\4\12,1\4\13,1\4\14,1\5\15,1\5\16,1\5\17
REM DIRNAME folder01,folder02,folder03,folder04,folder05,folder06,folder07,folder08,folder09,folder10,folder11,folder12,folder13,folder14,folder15,folder16,folder17
TITLE ""
FILE "1400_3_sec02_0101_0115.mp3" MP3
  TRACK 01 AUDIO
    TITLE "0:"
    INDEX 01 00:00:00
  TRACK 02 AUDIO
    TITLE "15:cjc029_4628"
    INDEX 01 00:00:15
  TRACK 03 AUDIO
    TITLE "0:"
    INDEX 01 00:02:00
  TRACK 04 AUDIO
    TITLE "17:cjc029_4629"
    INDEX 01 00:03:02
  TRACK 05 AUDIO
    TITLE "0:"
    INDEX 01 00:04:36
  TRACK 06 AUDIO
    TITLE "16:cjc029_4630"
    INDEX 01 00:04:48
  TRACK 07 AUDIO
    TITLE "0:"
    INDEX 01 00:05:65
  TRACK 08 AUDIO
    TITLE "17:cjc029_4631"
    INDEX 01 00:06:49
  TRACK 09 AUDIO
    TITLE "0:"
    INDEX 01 00:07:68
  TRACK 10 AUDIO
    TITLE "16:cjc029_4632"
    INDEX 01 00:07:72
  TRACK 11 AUDIO
    TITLE "0:"
    INDEX 01 00:09:20
  TRACK 12 AUDIO
    TITLE "17:cjc029_4633"
    INDEX 01 00:10:04
  TRACK 13 AUDIO
    TITLE "0:"
    INDEX 01 00:11:35
  TRACK 14 AUDIO
    TITLE "16:cjc029_4634"
    INDEX 01 00:11:39
  TRACK 15 AUDIO
    TITLE "0:"
    INDEX 01 00:12:46
  TRACK 16 AUDIO
    TITLE "17:cjc029_4635"
    INDEX 01 00:13:33
  TRACK 17 AUDIO
    TITLE "0:"
    INDEX 01 00:14:37
  TRACK 18 AUDIO
    TITLE "16:cjc029_4636"
    INDEX 01 00:14:45
  TRACK 19 AUDIO
    TITLE "0:"
    INDEX 01 00:15:58
  TRACK 20 AUDIO
    TITLE "17:cjc029_4637"
    INDEX 01 00:16:40
  TRACK 21 AUDIO
    TITLE "0:"
    INDEX 01 00:17:45
  TRACK 22 AUDIO
    TITLE "16:cjc029_4638"
    INDEX 01 00:17:51
  TRACK 23 AUDIO
    TITLE "0:"
    INDEX 01 00:18:64
  TRACK 24 AUDIO
    TITLE "17:cjc029_4639"
    INDEX 01 00:19:48
  TRACK 25 AUDIO
    TITLE "0:"
    INDEX 01 00:21:64
  TRACK 26 AUDIO
    TITLE "16:cjc029_4640"
    INDEX 01 00:21:70
  TRACK 27 AUDIO
    TITLE "0:"
    INDEX 01 00:22:74
  TRACK 28 AUDIO
    TITLE "17:cjc029_4641"
    INDEX 01 00:23:59
  TRACK 29 AUDIO
    TITLE "0:"
    INDEX 01 00:25:58
  TRACK 30 AUDIO
    TITLE "16:cjc029_4642"
    INDEX 01 00:25:62
  TRACK 31 AUDIO
    TITLE "0:"
    INDEX 01 00:27:10
  TRACK 32 AUDIO
    TITLE "17:cjc029_4643"
    INDEX 01 00:27:69
  TRACK 33 AUDIO
    TITLE "0:"
    INDEX 01 00:30:50
  TRACK 34 AUDIO
    TITLE "16:cjc029_4644"
    INDEX 01 00:30:55
  TRACK 35 AUDIO
    TITLE "0:"
    INDEX 01 00:31:61
  TRACK 36 AUDIO
    TITLE "17:cjc029_4645"
    INDEX 01 00:32:48
  TRACK 37 AUDIO
    TITLE "0:"
    INDEX 01 00:34:06
  TRACK 38 AUDIO
    TITLE "16:cjc029_4646"
    INDEX 01 00:34:10
  TRACK 39 AUDIO
    TITLE "0:"
    INDEX 01 00:35:25
  TRACK 40 AUDIO
    TITLE "17:cjc029_4647"
    INDEX 01 00:36:09
  TRACK 41 AUDIO
    TITLE "0:"
    INDEX 01 00:38:61
  TRACK 42 AUDIO
    TITLE "16:cjc029_4648"
    INDEX 01 00:38:69
  TRACK 43 AUDIO
    TITLE "0:"
    INDEX 01 00:40:01
  TRACK 44 AUDIO
    TITLE "17:cjc029_4649"
    INDEX 01 00:40:58
  TRACK 45 AUDIO
    TITLE "0:"
    INDEX 01 00:43:17
  TRACK 46 AUDIO
    TITLE "16:cjc029_4650"
    INDEX 01 00:43:21
  TRACK 47 AUDIO
    TITLE "0:"
    INDEX 01 00:44:30
  TRACK 48 AUDIO
    TITLE "17:cjc029_4651"
    INDEX 01 00:45:14
  TRACK 49 AUDIO
    TITLE "0:"
    INDEX 01 00:46:25
  TRACK 50 AUDIO
    TITLE "16:cjc029_4652"
    INDEX 01 00:46:29
  TRACK 51 AUDIO
    TITLE "0:"
    INDEX 01 00:47:58
  TRACK 52 AUDIO
    TITLE "17:cjc029_4653"
    INDEX 01 00:48:44
  TRACK 53 AUDIO
    TITLE "0:"
    INDEX 01 00:50:50
  TRACK 54 AUDIO
    TITLE "16:cjc029_4654"
    INDEX 01 00:50:64
  TRACK 55 AUDIO
    TITLE "0:"
    INDEX 01 00:51:65
  TRACK 56 AUDIO
    TITLE "17:cjc029_4655"
    INDEX 01 00:52:47
  TRACK 57 AUDIO
    TITLE "0:"
    INDEX 01 00:53:57
  TRACK 58 AUDIO
    TITLE "16:cjc029_4656"
    INDEX 01 00:53:60
  TRACK 59 AUDIO
    TITLE "0:"
    INDEX 01 00:55:03
  TRACK 60 AUDIO
    TITLE "17:cjc029_4657"
    INDEX 01 00:55:63
  TRACK 61 AUDIO
    TITLE "0:"
    INDEX 01 00:57:23
  TRACK 62 AUDIO
    TITLE "16:cjc029_4658"
    INDEX 01 00:57:27
  TRACK 63 AUDIO
    TITLE "0:"
    INDEX 01 00:58:48
